<svg width="25" height="25" viewBox="0 0 25 25" fill="none" xmlns="http://www.w3.org/2000/svg">
<path d="M24.1116 19.7007L19.9969 15.586C20.745 14.0898 21.2438 12.3441 21.2438 10.5985C21.2438 4.73815 16.5056 0 10.6453 0C4.78491 0 0.0467529 4.73815 0.0467529 10.5985C0.0467529 16.4589 4.78491 21.197 10.6453 21.197C12.3909 21.197 14.1365 20.6983 15.6328 19.9501L19.7475 24.0648C20.9944 25.3117 22.8647 25.3117 24.1116 24.0648C25.2338 22.818 25.2338 20.9476 24.1116 19.7007ZM10.6453 18.7032C6.15648 18.7032 2.54052 15.0873 2.54052 10.5985C2.54052 6.10973 6.15648 2.49377 10.6453 2.49377C15.134 2.49377 18.75 6.10973 18.75 10.5985C18.75 15.0873 15.134 18.7032 10.6453 18.7032Z" fill="#8C8A8A"/>
</svg>
